Coordinates
version=1
nRows=14
nColumns=24
inDegrees=yes

Units are S.I. units (second, meters, Newtons, ...)
Angles are in degrees.

endheader
time	pelvis_tilt	pelvis_list	pelvis_rotation	pelvis_tx	pelvis_ty	pelvis_tz	hip_flexion_r	hip_adduction_r	hip_rotation_r	knee_angle_r	ankle_angle_r	subtalar_angle_r	mtp_angle_r	hip_flexion_l	hip_adduction_l	hip_rotation_l	knee_angle_l	ankle_angle_l	subtalar_angle_l	mtp_angle_l	lumbar_extension	lumbar_bending	lumbar_rotation
      0.44100000	     -4.15583463	      3.81360517	     -1.21924063	     -0.77443166	      1.05254289	      0.29023860	     25.88807190	     -0.97341927	     -8.75578743	     -1.89260428	      2.42281862	     -0.92905203	      0.03836301	     -6.51203306	      8.39334447	      3.36489228	     -5.79769237	      9.76281229	     -7.05476138	      0.04284033	      3.87894615	     -0.94139543	     -0.80078240
      0.44516667	     -4.05959017	      3.85499485	     -1.38206128	     -0.76893947	      1.05204363	      0.29038879	     25.82836106	     -0.91451730	     -8.44913436	     -2.15590585	      2.50989183	     -0.40475480	      0.07675994	     -6.68381446	      8.47602243	      3.27097260	     -6.30063083	      9.76794575	     -7.18975358	     -0.00796401	      3.73776856	     -1.13179211	     -1.03298093
      0.44933333	     -4.05338797	      3.79303008	     -1.35440131	     -0.76309086	      1.05157512	      0.29035580	     25.77898826	     -0.81842123	     -8.29467858	     -2.39565277	      2.52969315	     -0.30740538	      0.08490498	     -6.74958052	      8.40962433	      3.25598235	     -6.88367893	      9.79437778	     -7.21195448	     -0.01436617	      3.77152878	     -1.05829826	     -1.06378832
      0.45350000	     -4.05881656	      3.73928772	     -1.51485772	     -0.75712744	      1.05101012	      0.29058692	     25.77214249	     -0.65218172	     -7.88326559	     -2.74038040	      2.69417959	      0.02991958	      0.11910561	     -6.79603677	      8.37117458	      2.98201248	     -7.48106658	     10.07948302	     -7.10993805	     -0.03069894	      3.72534543	     -0.89968194	     -1.18449499
      0.45766667	     -3.99025040	      3.72770160	     -1.67639819	     -0.75130157	      1.05054786	      0.29085234	     25.71939495	     -0.53244363	     -7.50104654	     -3.18515267	      2.86072858	      0.31867703	      0.17864913	     -6.87354354	      8.37510583	      2.65637532	     -8.15784418	     10.34104043	     -6.64776452	     -0.05312679	      3.77297200	     -0.93938452	     -1.23472627
      0.46183333	     -3.99447397	      3.65695302	     -1.67611959	     -0.74534785	      1.05011145	      0.29090672	     25.68541569	     -0.41823356	     -7.19742571	     -3.59584536	      2.85329766	      0.41301178	      0.20926902	     -6.84564362	      8.28620326	      2.47309094	     -8.91406777	     10.43523582	     -6.46354842	     -0.05975638	      3.71824244	     -0.79915451	     -1.26327856
      0.46600000	     -3.92914052	      3.63956412	     -1.88431584	     -0.73942985	      1.04968372	      0.29131187	     25.62668367	     -0.26899750	     -6.65157172	     -4.10030500	      2.88493825	      0.48467836	      0.28236442	     -6.86846070	      8.27066098	      2.01828301	     -9.69743976	     10.69620849	     -5.83410902	     -0.05785105	      3.79949392	     -0.80427193	     -1.25378262
      0.47016667	     -3.86791417	      3.56846281	     -1.82250424	     -0.73347180	      1.04942516	      0.29118251	     25.51899097	     -0.20110908	     -6.44903735	     -4.57544373	      2.83986402	      0.51688960	      0.29214462	     -6.86180973	      8.17440487	      1.97504866	    -10.55882013	     10.66788821	     -5.79899403	     -0.05642384	      3.83398816	     -0.70467399	     -1.25765956
      0.47433333	     -3.83867975	      3.50730151	     -2.03623858	     -0.72743069	      1.04902685	      0.29190265	     25.45129732	      0.02552734	     -5.70329715	     -5.05780234	      2.75785881	      0.38917845	      0.39727508	     -6.76790448	      8.06411962	      1.23310599	    -11.50605537	     10.93975831	     -4.73684912	     -0.00780994	      3.77592337	     -0.67673168	     -1.21538244
      0.47850000	     -3.77432495	      3.44708626	     -2.10773145	     -0.72147260	      1.04877182	      0.29224213	     25.34466861	      0.16683783	     -5.23094844	     -5.56856764	      2.58716602	      0.09701149	      0.51290608	     -6.68252569	      7.95091586	      0.80934471	    -12.51494622	     11.06169119	     -4.01552589	      0.06177010	      3.73476346	     -0.57427285	     -1.14775643
      0.48266667	     -3.68369238	      3.37845334	     -2.06639167	     -0.71548276	      1.04865582	      0.29207217	     25.20516357	      0.22409138	     -5.04757692	     -6.10458597	      2.52292495	      0.12593289	      0.52351816	     -6.61540759	      7.84618204	      0.71831353	    -13.55195779	     10.98959103	     -3.99874330	      0.06868859	      3.77212259	     -0.44705583	     -1.15708960
      0.48683333	     -3.65368356	      3.31787730	     -2.26433282	     -0.70943220	      1.04837335	      0.29283769	     25.12727851	      0.44119113	     -4.36393656	     -6.61321407	      2.27628491	     -0.08375138	      0.62769482	     -6.42310128	      7.70075376	     -0.04635974	    -14.67934194	     10.90839036	     -2.97393864	      0.18012109	      3.69091201	     -0.41969745	     -1.14132268
      0.49100000	     -3.60800805	      3.23389615	     -2.29739957	     -0.70340128	      1.04823697	      0.29323371	     25.00837791	      0.59432862	     -3.93275646	     -7.11121233	      2.04282835	     -0.52588614	      0.75336814	     -6.21387613	      7.51480694	     -0.53042653	    -15.89405554	     10.91776765	     -2.13666374	      0.34382398	      3.65563661	     -0.29359408	     -1.08433779
      0.49516667	     -3.54830904	      3.14345602	     -2.27414858	     -0.69736242	      1.04818118	      0.29324949	     24.88951068	      0.69182047	     -3.78078699	     -7.65599829	      1.93609050	     -0.53713843	      0.77893687	     -5.99546365	      7.34328122	     -0.83543067	    -17.15071467	     10.76218104	     -2.01841794	      0.37875104	      3.56483834	     -0.13717919	     -1.10439539
